<?xml version="1.0" encoding="UTF-8" standalone="no"?>
<!-- Created with Inkscape (http://www.inkscape.org/) -->

<svg
   xmlns:dc="http://purl.org/dc/elements/1.1/"
   xmlns:cc="http://creativecommons.org/ns#"
   xmlns:rdf="http://www.w3.org/1999/02/22-rdf-syntax-ns#"
   xmlns:svg="http://www.w3.org/2000/svg"
   xmlns="http://www.w3.org/2000/svg"
   xmlns:sodipodi="http://sodipodi.sourceforge.net/DTD/sodipodi-0.dtd"
   xmlns:inkscape="http://www.inkscape.org/namespaces/inkscape"
   version="1.1"
   id="svg3718"
   xml:space="preserve"
   width="206.528"
   height="270.80212"
   viewBox="0 0 206.528 270.80212"
   sodipodi:docname="csip_logo.svg"
   inkscape:version="0.92.2 5c3e80d, 2017-08-06"
   inkscape:export-filename="/Users/csb/Desktop/csip_logo.png"
   inkscape:export-xdpi="223.11687"
   inkscape:export-ydpi="223.11687"><metadata
     id="metadata3724"><rdf:RDF><cc:Work
         rdf:about=""><dc:format>image/svg+xml</dc:format><dc:type
           rdf:resource="http://purl.org/dc/dcmitype/StillImage" /><dc:title></dc:title></cc:Work></rdf:RDF></metadata><defs
     id="defs3722" /><sodipodi:namedview
     pagecolor="#ffffff"
     bordercolor="#666666"
     borderopacity="1"
     objecttolerance="10"
     gridtolerance="10"
     guidetolerance="10"
     inkscape:pageopacity="1"
     inkscape:pageshadow="2"
     inkscape:window-width="1680"
     inkscape:window-height="922"
     id="namedview3720"
     showgrid="false"
     inkscape:zoom="1.9397137"
     inkscape:cx="102.7482"
     inkscape:cy="88.043201"
     inkscape:window-x="2"
     inkscape:window-y="0"
     inkscape:window-maximized="0"
     inkscape:current-layer="svg3718"
     fit-margin-top="0"
     fit-margin-left="0"
     fit-margin-right="0"
     fit-margin-bottom="0"
     inkscape:pagecheckerboard="false"
     inkscape:snap-page="true"
     viewbox-width="207.23"
     scale-x="1" /><g
     id="g3726"
     inkscape:groupmode="layer"
     inkscape:label="CSIP_FINAL_logo"
     transform="matrix(1.3333333,0,0,-1.3333333,-457.47132,578.5192)"><g
       id="g3810"
       transform="translate(486.9326,312.18621)"><path
         d="M 0,0 V -11.062 H -11.062 -22.123 V 0 h 11.061 z"
         style="fill:#adafb2;fill-opacity:1;fill-rule:nonzero;stroke:none"
         id="path3812"
         inkscape:connector-curvature="0" /></g><g
       id="g3814"
       transform="translate(431.6172,334.30931)"><path
         d="M 0,0 V -11.062 H -11.062 -22.131 -33.192 -44.254 -55.323 -66.385 -77.446 V 0 11.069 22.131 33.192 44.262 55.323 66.385 77.454 88.516 h 11.061 11.062 11.069 11.062 11.061 11.069 H 0 V 77.454 66.385 55.323 44.262 33.192 22.131 11.069 Z"
         style="fill:#adafb2;fill-opacity:1;fill-rule:nonzero;stroke:none"
         id="path3816"
         inkscape:connector-curvature="0" /></g><g
       id="g3818"
       transform="translate(352.9785,230.78781)"><path
         d="m 0,0 v 4.938 h -4.937 v 4.938 h -4.938 v 14.813 h 4.938 v 4.938 H 0 v 4.937 h 19.751 v -4.937 h 4.938 v -4.938 h -9.876 v 4.938 H 4.938 V 24.689 H 0 V 9.876 H 4.938 V 4.938 h 9.875 v 4.938 h 9.876 V 4.938 H 19.751 V 0 Z"
         style="fill:#1d1d1b;fill-opacity:1;fill-rule:nonzero;stroke:none"
         id="path3820"
         inkscape:connector-curvature="0" /></g><g
       id="g3822"
       transform="translate(388.6675,230.78781)"><path
         d="M 0,0 V 4.938 H -4.938 V 9.876 H 4.937 V 4.938 H 19.75 v 9.875 H 0 v 4.938 h -4.938 v 9.876 H 0 v 4.937 h 24.688 v -4.937 h 4.938 V 24.689 H 19.75 v 4.938 H 4.937 v -9.876 h 19.751 v -4.938 h 4.938 V 4.938 H 24.688 V 0 Z"
         style="fill:#1d1d1b;fill-opacity:1;fill-rule:nonzero;stroke:none"
         id="path3824"
         inkscape:connector-curvature="0" /></g><g
       id="g3826"
       transform="translate(424.5791,230.78781)"><path
         d="M 0,0 V 4.938 H 9.876 V 29.627 H 0 v 4.937 H 29.627 V 29.627 H 19.751 V 4.938 h 9.876 V 0 Z"
         style="fill:#1d1d1b;fill-opacity:1;fill-rule:nonzero;stroke:none"
         id="path3828"
         inkscape:connector-curvature="0" /></g><path
       d="m 471.484,245.60101 h 14.813 v 14.813 h -14.813 z m -9.876,-14.813 v 34.564 h 29.627 v -4.937 h 4.938 v -14.814 h -4.938 v -4.937 h -19.751 v -9.876 z"
       style="fill:#1d1d1b;fill-opacity:1;fill-rule:nonzero;stroke:none"
       id="path3830"
       inkscape:connector-curvature="0" /><g
       id="g3832"
       transform="translate(431.6152,411.76141)"><path
         d="M 0,0 V -11.064 -22.128 -33.192 -44.256 -55.32 -66.384 -77.448 -88.512 h 11.064 v 11.064 11.064 11.064 11.064 11.064 11.064 11.064 V 0 11.064 H 0 Z"
         style="fill:#1d1d1b;fill-opacity:1;fill-rule:nonzero;stroke:none"
         id="path3834"
         inkscape:connector-curvature="0" /></g><g
       id="g3836"
       transform="translate(409.4873,323.24921)"><path
         d="M 0,0 H -11.063 -22.128 -33.192 -44.256 -55.32 v -11.064 h 11.064 11.064 11.064 11.065 H 0 11.064 22.128 V 0 H 11.064 Z"
         style="fill:#1d1d1b;fill-opacity:1;fill-rule:nonzero;stroke:none"
         id="path3838"
         inkscape:connector-curvature="0" /></g><g
       id="g3840"
       transform="translate(420.5518,301.12131)"><path
         d="M 0,0 H -11.064 -22.128 -33.192 -44.256 -55.32 -66.384 -77.448 v -11.064 h 11.064 11.064 11.064 11.064 11.064 11.064 H 0 11.063 22.128 V 0 H 11.063 Z"
         style="fill:#1d1d1b;fill-opacity:1;fill-rule:nonzero;stroke:none"
         id="path3842"
         inkscape:connector-curvature="0" /></g><g
       id="g3844"
       transform="translate(486.9355,312.18531)"><path
         d="M 0,0 V 11.064 H -11.063 -22.128 V 0 h 11.065 z"
         style="fill:#1d1d1b;fill-opacity:1;fill-rule:nonzero;stroke:none"
         id="path3846"
         inkscape:connector-curvature="0" /></g><g
       id="g3848"
       transform="translate(486.9355,312.18531)"><path
         d="M 0,0 V -11.064 H -11.063 -22.128 V 0 H -33.191 V -11.064 -22.128 H -22.128 -11.063 0 11.064 V -11.064 0 Z"
         style="fill:#1d1d1b;fill-opacity:1;fill-rule:nonzero;stroke:none"
         id="path3850"
         inkscape:connector-curvature="0" /></g><g
       id="g3852"
       transform="translate(354.1675,345.3772)"
       inkscape:groupmode="layer"><path
         d="M 0,0 V 11.064 22.128 33.192 44.256 55.32 66.384 77.448 H -11.064 V 66.384 55.32 44.256 33.192 22.128 11.064 0 -11.064 -22.128 H 0 v 11.064 z"
         style="fill:#1d1d1b;fill-opacity:1;fill-rule:nonzero;stroke:none"
         id="path3854"
         inkscape:connector-curvature="0" /></g><g
       id="g3856"
       transform="translate(376.2954,345.37721)"><path
         d="M 0,0 H -11.064 V -11.064 H 0 11.064 22.128 V 0 H 11.064 Z"
         style="fill:#1d1d1b;fill-opacity:1;fill-rule:nonzero;stroke:none"
         id="path3858"
         inkscape:connector-curvature="0" /></g><path
       d="m 409.487,334.31301 h 11.064 v 11.064 h -11.064 z"
       style="fill:#1d1d1b;fill-opacity:1;fill-rule:nonzero;stroke:none"
       id="path3860"
       inkscape:connector-curvature="0" /><g
       id="g3862"
       transform="translate(409.4873,389.63351)"><path
         d="M 0,0 V -11.064 -22.128 H -11.063 -22.128 -33.192 V -11.064 0 11.064 H -22.128 -11.063 0 Z M -11.063,22.128 H -22.128 -33.192 -44.256 V 11.064 0 -11.064 -22.128 -33.192 h 11.064 11.064 11.065 H 0 11.064 V -22.128 -11.064 0 11.064 22.128 H 0 Z"
         style="fill:#1d1d1b;fill-opacity:1;fill-rule:nonzero;stroke:none"
         id="path3864"
         inkscape:connector-curvature="0" /></g><g
       id="g3866"
       transform="translate(376.2954,422.82541)"><path
         d="M 0,0 H 11.064 22.128 33.192 44.256 55.32 V 11.064 H 44.256 33.192 22.128 11.064 0 -11.064 -22.128 V 0 h 11.064 z"
         style="fill:#1d1d1b;fill-opacity:1;fill-rule:nonzero;stroke:none"
         id="path3868"
         inkscape:connector-curvature="0" /></g><path
       d="m 409.487,367.50501 h -33.192 v 33.192 h 33.192 z"
       style="fill:#cb0935;fill-opacity:1;fill-rule:nonzero;stroke:none"
       id="path3870"
       inkscape:connector-curvature="0" /><g
       id="g3872"
       transform="translate(354.1709,421.57741)"><path
         d="M 0,0 H -0.003 V -98.328 H 11.058 V -9.813 H 66.385 V 1.248 H 0 Z"
         style="fill:#ffffff;fill-opacity:1;fill-rule:nonzero;stroke:none"
         id="path3874"
         inkscape:connector-curvature="0" /></g><path
       d="m 376.296,367.50601 h 11.062 v 33.192 h -11.062 z"
       style="fill:#ffffff;fill-opacity:1;fill-rule:nonzero;stroke:none"
       id="path3876"
       inkscape:connector-curvature="0" /><path
       d="m 464.808,301.12201 h 11.064 v 11.064 h -11.064 z"
       style="fill:#ffffff;fill-opacity:1;fill-rule:nonzero;stroke:none"
       id="path3878"
       inkscape:connector-curvature="0" /></g></svg>